<?xml version="1.0" encoding="UTF-8"?>
<svg id="_레이어_1" data-name="레이어_1" xmlns="http://www.w3.org/2000/svg" version="1.1" viewBox="0 0 64 64">
  <!-- Generator: Adobe Illustrator 29.5.1, SVG Export Plug-In . SVG Version: 2.1.0 Build 141)  -->
  <rect width="64" height="64" rx="15.59" ry="15.59" style="fill: #e7290f;"/>
  <g>
    <path d="M32.58,27.7h6.66s-20.3,11.03.08,19.84c0,0-27.96-5.82-6.74-19.84Z" style="fill: #fff; stroke: #fff; stroke-miterlimit: 10; stroke-width: .5px;"/>
    <path d="M34.87,19.82s5.75,2.75.69,6.43h6.44s2.6-5.52-7.13-6.43Z" style="fill: #fff; stroke: #fff; stroke-miterlimit: 10; stroke-width: .5px;"/>
    <path d="M32,12.77c-10.62,0-19.23,8.61-19.23,19.23s8.61,19.23,19.23,19.23,19.23-8.61,19.23-19.23-8.61-19.23-19.23-19.23ZM32,48.6c-9.17,0-16.6-7.44-16.6-16.6s7.43-16.61,16.6-16.61,16.61,7.44,16.61,16.61-7.43,16.6-16.61,16.6Z" style="fill: #fff;"/>
    <path d="M32,12.77c-10.62,0-19.23,8.61-19.23,19.23s8.61,19.23,19.23,19.23,19.23-8.61,19.23-19.23-8.61-19.23-19.23-19.23ZM32,48.6c-9.17,0-16.6-7.44-16.6-16.6s7.43-16.61,16.6-16.61,16.61,7.44,16.61,16.61-7.43,16.6-16.61,16.6Z" style="fill: #fff; stroke: #fff; stroke-miterlimit: 10; stroke-width: 2px;"/>
  </g>
</svg>