<svg width="343" height="46" viewBox="0 0 343 46" fill="none" xmlns="http://www.w3.org/2000/svg">
<path d="M93.9192 20.2646H98.967V25.2695H93.9192V41.5342H88.8713V4H93.9192V20.2646ZM134.571 41.5342H129.523V4H134.571V41.5342ZM144.934 31.5244H150.885C156.909 31.5243 162.688 29.152 166.948 24.9287L167.65 24.2324V4H172.698V19.2275L176.591 15.3672L180.16 18.9062L172.698 26.3047V41.5342H167.65V30.9414C162.852 34.5451 156.973 36.5292 150.885 36.5293H139.886V4H144.934V31.5244ZM218.129 41.5342H213.081V4H218.129V41.5342ZM72.4651 4C78.7376 4 83.8231 9.04128 83.8235 15.2598V27.7715C83.8235 33.9903 78.7378 39.0322 72.4651 39.0322C66.1926 39.032 61.1077 33.9902 61.1077 27.7715V15.2598C61.1081 9.04144 66.1928 4.00026 72.4651 4ZM113.116 4C119.389 4 124.474 9.04128 124.475 15.2598V27.7715C124.475 33.9903 119.389 39.0322 113.116 39.0322C106.844 39.0319 101.759 33.9901 101.759 27.7715V15.2598C101.759 9.0415 106.844 4.00035 113.116 4ZM187.842 17.7617H202.987V4H208.034V36.5303H182.794V4H187.842V17.7617ZM72.4651 9.00488C68.9807 9.00514 66.1559 11.8054 66.1555 15.2598V27.7715C66.1555 31.2262 68.9805 34.0271 72.4651 34.0273C75.9499 34.0273 78.7756 31.2264 78.7756 27.7715V15.2598C78.7752 11.8052 75.9497 9.00488 72.4651 9.00488ZM113.116 9.00488C109.632 9.00524 106.807 11.8054 106.807 15.2598V27.7715C106.807 31.2262 109.632 34.027 113.116 34.0273C116.601 34.0273 119.427 31.2264 119.427 27.7715V15.2598C119.427 11.8052 116.601 9.00488 113.116 9.00488ZM187.842 31.5264H202.987V22.7666H187.842V31.5264Z" fill="#1B1B1E"/>
<path d="M268 40.0479L268 35L305.534 35L305.534 40.0479L268 40.0479Z" fill="black"/>
<path d="M342.024 32L337.024 32L337.024 4L342.024 4L342.024 32Z" fill="black"/>
<path d="M311 41.024L311 36.024L343 36.024L343 41.024L311 41.024Z" fill="black"/>
<path d="M316 40.5L311 40.5L311 28.5L316 28.5L316 40.5Z" fill="black"/>
<path d="M271 28.012L271 23.012L302 23.012L302 28.012L271 28.012Z" fill="black"/>
<path d="M271 10.012L271 5.01198L302 5.01198L302 10.012L271 10.012Z" fill="black"/>
<path d="M276 27L271 27L271 7L276 7L276 27Z" fill="black"/>
<path d="M315 25L310 25L310 5L315 5L315 25Z" fill="black"/>
<path d="M331 25L326 25L326 5L331 5L331 25Z" fill="black"/>
<path d="M310.5 10L310.5 5L330.5 5L330.5 10L310.5 10Z" fill="black"/>
<path d="M310.5 25L310.5 20L330.5 20L330.5 25L310.5 25Z" fill="black"/>
<path d="M264.222 42.0003H259.111V4.00033H264.222V42.0003ZM244.357 4.00033C250.63 4.00033 255.716 9.04145 255.716 15.2601V20.4661H259.11V25.5335H255.716V27.7718C255.716 33.9907 250.63 39.0326 244.357 39.0326C238.085 39.0324 233 33.9905 233 27.7718V15.2601C233 9.04158 238.085 4.00053 244.357 4.00033ZM244.357 9.00521C240.873 9.00541 238.048 11.8055 238.048 15.2601V27.7718C238.048 31.2266 240.873 34.0275 244.357 34.0277C247.842 34.0277 250.668 31.2267 250.668 27.7718V15.2601C250.668 11.8054 247.842 9.00521 244.357 9.00521Z" fill="black"/>
<g clip-path="url(#clip0_106_196)">
<path d="M34.7947 0H11.2053C5.01679 0 0 5.01679 0 11.2053V34.7947C0 40.9832 5.01679 46 11.2053 46H34.7947C40.9832 46 46 40.9832 46 34.7947V11.2053C46 5.01679 40.9832 0 34.7947 0Z" fill="#E7290F"/>
<path d="M23.4169 19.9094H28.2038C28.2038 19.9094 13.6132 27.8372 28.2613 34.1694C28.2613 34.1694 8.16507 29.9863 23.4169 19.9094Z" fill="white" stroke="white" stroke-width="0.359375" stroke-miterlimit="10"/>
<path d="M25.0627 14.2456C25.0627 14.2456 29.1956 16.2222 25.5587 18.8672H30.1874C30.1874 18.8672 32.0562 14.8997 25.0627 14.2456Z" fill="white" stroke="white" stroke-width="0.359375" stroke-miterlimit="10"/>
<path d="M23 9.17844C15.3669 9.17844 9.17847 15.3669 9.17847 23C9.17847 30.6331 15.3669 36.8216 23 36.8216C30.6332 36.8216 36.8216 30.6331 36.8216 23C36.8216 15.3669 30.6332 9.17844 23 9.17844ZM23 34.9313C16.4091 34.9313 11.0688 29.5838 11.0688 23C11.0688 16.4163 16.4091 11.0616 23 11.0616C29.591 11.0616 34.9385 16.4091 34.9385 23C34.9385 29.5909 29.5982 34.9313 23 34.9313Z" fill="white"/>
<path d="M23 9.17844C15.3669 9.17844 9.17847 15.3669 9.17847 23C9.17847 30.6331 15.3669 36.8216 23 36.8216C30.6332 36.8216 36.8216 30.6331 36.8216 23C36.8216 15.3669 30.6332 9.17844 23 9.17844ZM23 34.9313C16.4091 34.9313 11.0688 29.5838 11.0688 23C11.0688 16.4163 16.4091 11.0616 23 11.0616C29.591 11.0616 34.9385 16.4091 34.9385 23C34.9385 29.5909 29.5982 34.9313 23 34.9313Z" fill="white" stroke="white" stroke-width="1.4375" stroke-miterlimit="10"/>
</g>
<defs>
<clipPath id="clip0_106_196">
<rect width="46" height="46" fill="white"/>
</clipPath>
</defs>
</svg>
